<?xml version="1.0" standalone="no"?>
<!DOCTYPE svg PUBLIC "-//W3C//DTD SVG 1.1//EN" "http://www.w3.org/Graphics/SVG/1.1/DTD/svg11.dtd">
<svg version="1.1" width="1200" height="678" onload="init(evt)" viewBox="0 0 1200 678" xmlns="http://www.w3.org/2000/svg" xmlns:xlink="http://www.w3.org/1999/xlink">
<style type="text/css">
	text { font-family:Verdana; font-size:12px; fill:rgb(0,0,0); }
	#search { opacity:0.1; cursor:pointer; }
	#search:hover, #search.show { opacity:1; }
	#subtitle { text-anchor:middle; font-color:rgb(160,160,160); }
	#title { text-anchor:middle; font-size:17px}
	#unzoom { cursor:pointer; }
	#frames > *:hover { stroke:black; stroke-width:0.5; cursor:pointer; }
	.hide { display:none; }
	.parent { opacity:0.5; }
</style>
<script type="text/ecmascript">
<![CDATA[
	"use strict";
	var details, searchbtn, unzoombtn, matchedtxt, svg, searching;
	function init(evt) {
		details = document.getElementById("details").firstChild;
		searchbtn = document.getElementById("search");
		unzoombtn = document.getElementById("unzoom");
		matchedtxt = document.getElementById("matched");
		svg = document.getElementsByTagName("svg")[0];
		searching = 0;
	}

	window.addEventListener("click", function(e) {
		var target = find_group(e.target);
		if (target) {
			if (target.nodeName == "a") {
				if (e.ctrlKey === false) return;
				e.preventDefault();
			}
			if (target.classList.contains("parent")) unzoom();
			zoom(target);
		}
		else if (e.target.id == "unzoom") unzoom();
		else if (e.target.id == "search") search_prompt();
	}, false)

	// mouse-over for info
	// show
	window.addEventListener("mouseover", function(e) {
		var target = find_group(e.target);
		if (target) details.nodeValue = "Function: " + g_to_text(target);
	}, false)

	// clear
	window.addEventListener("mouseout", function(e) {
		var target = find_group(e.target);
		if (target) details.nodeValue = ' ';
	}, false)

	// ctrl-F for search
	window.addEventListener("keydown",function (e) {
		if (e.keyCode === 114 || (e.ctrlKey && e.keyCode === 70)) {
			e.preventDefault();
			search_prompt();
		}
	}, false)

	// functions
	function find_child(node, selector) {
		var children = node.querySelectorAll(selector);
		if (children.length) return children[0];
		return;
	}
	function find_group(node) {
		var parent = node.parentElement;
		if (!parent) return;
		if (parent.id == "frames") return node;
		return find_group(parent);
	}
	function orig_save(e, attr, val) {
		if (e.attributes["_orig_" + attr] != undefined) return;
		if (e.attributes[attr] == undefined) return;
		if (val == undefined) val = e.attributes[attr].value;
		e.setAttribute("_orig_" + attr, val);
	}
	function orig_load(e, attr) {
		if (e.attributes["_orig_"+attr] == undefined) return;
		e.attributes[attr].value = e.attributes["_orig_" + attr].value;
		e.removeAttribute("_orig_"+attr);
	}
	function g_to_text(e) {
		var text = find_child(e, "title").firstChild.nodeValue;
		return (text)
	}
	function g_to_func(e) {
		var func = g_to_text(e);
		// if there's any manipulation we want to do to the function
		// name before it's searched, do it here before returning.
		return (func);
	}
	function update_text(e) {
		var r = find_child(e, "rect");
		var t = find_child(e, "text");
		var w = parseFloat(r.attributes.width.value) -3;
		var txt = find_child(e, "title").textContent.replace(/\([^(]*\)$/,"");
		t.attributes.x.value = parseFloat(r.attributes.x.value) + 3;

		// Smaller than this size won't fit anything
		if (w < 2 * 12 * 0.59) {
			t.textContent = "";
			return;
		}

		t.textContent = txt;
		// Fit in full text width
		if (/^ *$/.test(txt) || t.getSubStringLength(0, txt.length) < w)
			return;

		for (var x = txt.length - 2; x > 0; x--) {
			if (t.getSubStringLength(0, x + 2) <= w) {
				t.textContent = txt.substring(0, x) + "..";
				return;
			}
		}
		t.textContent = "";
	}

	// zoom
	function zoom_reset(e) {
		if (e.attributes != undefined) {
			orig_load(e, "x");
			orig_load(e, "width");
		}
		if (e.childNodes == undefined) return;
		for (var i = 0, c = e.childNodes; i < c.length; i++) {
			zoom_reset(c[i]);
		}
	}
	function zoom_child(e, x, ratio) {
		if (e.attributes != undefined) {
			if (e.attributes.x != undefined) {
				orig_save(e, "x");
				e.attributes.x.value = (parseFloat(e.attributes.x.value) - x - 10) * ratio + 10;
				if (e.tagName == "text")
					e.attributes.x.value = find_child(e.parentNode, "rect[x]").attributes.x.value + 3;
			}
			if (e.attributes.width != undefined) {
				orig_save(e, "width");
				e.attributes.width.value = parseFloat(e.attributes.width.value) * ratio;
			}
		}

		if (e.childNodes == undefined) return;
		for (var i = 0, c = e.childNodes; i < c.length; i++) {
			zoom_child(c[i], x - 10, ratio);
		}
	}
	function zoom_parent(e) {
		if (e.attributes) {
			if (e.attributes.x != undefined) {
				orig_save(e, "x");
				e.attributes.x.value = 10;
			}
			if (e.attributes.width != undefined) {
				orig_save(e, "width");
				e.attributes.width.value = parseInt(svg.width.baseVal.value) - (10 * 2);
			}
		}
		if (e.childNodes == undefined) return;
		for (var i = 0, c = e.childNodes; i < c.length; i++) {
			zoom_parent(c[i]);
		}
	}
	function zoom(node) {
		var attr = find_child(node, "rect").attributes;
		var width = parseFloat(attr.width.value);
		var xmin = parseFloat(attr.x.value);
		var xmax = parseFloat(xmin + width);
		var ymin = parseFloat(attr.y.value);
		var ratio = (svg.width.baseVal.value - 2 * 10) / width;

		// XXX: Workaround for JavaScript float issues (fix me)
		var fudge = 0.0001;

		unzoombtn.classList.remove("hide");

		var el = document.getElementById("frames").children;
		for (var i = 0; i < el.length; i++) {
			var e = el[i];
			var a = find_child(e, "rect").attributes;
			var ex = parseFloat(a.x.value);
			var ew = parseFloat(a.width.value);
			var upstack;
			// Is it an ancestor
			if (0 == 0) {
				upstack = parseFloat(a.y.value) > ymin;
			} else {
				upstack = parseFloat(a.y.value) < ymin;
			}
			if (upstack) {
				// Direct ancestor
				if (ex <= xmin && (ex+ew+fudge) >= xmax) {
					e.classList.add("parent");
					zoom_parent(e);
					update_text(e);
				}
				// not in current path
				else
					e.classList.add("hide");
			}
			// Children maybe
			else {
				// no common path
				if (ex < xmin || ex + fudge >= xmax) {
					e.classList.add("hide");
				}
				else {
					zoom_child(e, xmin, ratio);
					update_text(e);
				}
			}
		}
	}
	function unzoom() {
		unzoombtn.classList.add("hide");
		var el = document.getElementById("frames").children;
		for(var i = 0; i < el.length; i++) {
			el[i].classList.remove("parent");
			el[i].classList.remove("hide");
			zoom_reset(el[i]);
			update_text(el[i]);
		}
	}

	// search
	function reset_search() {
		var el = document.querySelectorAll("#frames rect");
		for (var i = 0; i < el.length; i++) {
			orig_load(el[i], "fill")
		}
	}
	function search_prompt() {
		if (!searching) {
			var term = prompt("Enter a search term (regexp " +
			    "allowed, eg: ^ext4_)", "");
			if (term != null) {
				search(term)
			}
		} else {
			reset_search();
			searching = 0;
			searchbtn.classList.remove("show");
			searchbtn.firstChild.nodeValue = "Search"
			matchedtxt.classList.add("hide");
			matchedtxt.firstChild.nodeValue = ""
		}
	}
	function search(term) {
		var re = new RegExp(term);
		var el = document.getElementById("frames").children;
		var matches = new Object();
		var maxwidth = 0;
		for (var i = 0; i < el.length; i++) {
			var e = el[i];
			var func = g_to_func(e);
			var rect = find_child(e, "rect");
			if (func == null || rect == null)
				continue;

			// Save max width. Only works as we have a root frame
			var w = parseFloat(rect.attributes.width.value);
			if (w > maxwidth)
				maxwidth = w;

			if (func.match(re)) {
				// highlight
				var x = parseFloat(rect.attributes.x.value);
				orig_save(rect, "fill");
				rect.attributes.fill.value = "rgb(230,0,230)";

				// remember matches
				if (matches[x] == undefined) {
					matches[x] = w;
				} else {
					if (w > matches[x]) {
						// overwrite with parent
						matches[x] = w;
					}
				}
				searching = 1;
			}
		}
		if (!searching)
			return;

		searchbtn.classList.add("show");
		searchbtn.firstChild.nodeValue = "Reset Search";

		// calculate percent matched, excluding vertical overlap
		var count = 0;
		var lastx = -1;
		var lastw = 0;
		var keys = Array();
		for (k in matches) {
			if (matches.hasOwnProperty(k))
				keys.push(k);
		}
		// sort the matched frames by their x location
		// ascending, then width descending
		keys.sort(function(a, b){
			return a - b;
		});
		// Step through frames saving only the biggest bottom-up frames
		// thanks to the sort order. This relies on the tree property
		// where children are always smaller than their parents.
		var fudge = 0.0001;	// JavaScript floating point
		for (var k in keys) {
			var x = parseFloat(keys[k]);
			var w = matches[keys[k]];
			if (x >= lastx + lastw - fudge) {
				count += w;
				lastx = x;
				lastw = w;
			}
		}
		// display matched percent
		matchedtxt.classList.remove("hide");
		var pct = 100 * count / maxwidth;
		if (pct != 100) pct = pct.toFixed(1)
		matchedtxt.firstChild.nodeValue = "Matched: " + pct + "%";
	}
]]>
</script>
<rect x="0" y="0" width="100%" height="100%" fill="rgb(240,240,220)"/>
<text id="title" x="600" y="24">Flame Graph</text>
<text id="details" x="10" y="661"> </text>
<text id="unzoom" x="10" y="24" class="hide">Reset Zoom</text>
<text id="search" x="1090" y="24">Search</text>
<text id="matched" x="1090" y="661"> </text>
<g id="frames">
<g>
<title>all (288 samples, 100.00%)</title><rect x="10.0" y="627.0" width="1180.0" height="15" fill="#f17070" rx="2" ry="2"/>
<text x="13.0" y="638.0">all</text>
</g>
<g>
<title>[not_walkable_Java] (1 samples, 0.35%)</title><rect x="10.0" y="611.0" width="4.1" height="15" fill="#ee6b6b" rx="2" ry="2"/>
<text x="13.0" y="622.0"></text>
</g>
<g>
<title>__clock_gettime (1 samples, 0.35%)</title><rect x="10.0" y="595.0" width="4.1" height="15" fill="#fb7d7d" rx="2" ry="2"/>
<text x="13.0" y="606.0"></text>
</g>
<g>
<title>__vdso_clock_gettime (1 samples, 0.35%)</title><rect x="10.0" y="579.0" width="4.1" height="15" fill="#e25c5c" rx="2" ry="2"/>
<text x="13.0" y="590.0"></text>
</g>
<g>
<title>[unknown] (1 samples, 0.35%)</title><rect x="14.1" y="611.0" width="4.1" height="15" fill="#e76262" rx="2" ry="2"/>
<text x="17.1" y="622.0"></text>
</g>
<g>
<title>__vdso_clock_gettime (1 samples, 0.35%)</title><rect x="14.1" y="595.0" width="4.1" height="15" fill="#f27070" rx="2" ry="2"/>
<text x="17.1" y="606.0"></text>
</g>
<g>
<title>[unknown_Java] (2 samples, 0.69%)</title><rect x="18.2" y="611.0" width="8.2" height="15" fill="#ea6666" rx="2" ry="2"/>
<text x="21.2" y="622.0"></text>
</g>
<g>
<title>__clock_gettime (1 samples, 0.35%)</title><rect x="18.2" y="595.0" width="4.1" height="15" fill="#ec6969" rx="2" ry="2"/>
<text x="21.2" y="606.0"></text>
</g>
<g>
<title>__vdso_clock_gettime (1 samples, 0.35%)</title><rect x="18.2" y="579.0" width="4.1" height="15" fill="#f47474" rx="2" ry="2"/>
<text x="21.2" y="590.0"></text>
</g>
<g>
<title>[vdso] (1 samples, 0.35%)</title><rect x="18.2" y="563.0" width="4.1" height="15" fill="#eb6868" rx="2" ry="2"/>
<text x="21.2" y="574.0"></text>
</g>
<g>
<title>__vdso_clock_gettime (1 samples, 0.35%)</title><rect x="22.3" y="595.0" width="4.1" height="15" fill="#fb7d7d" rx="2" ry="2"/>
<text x="25.3" y="606.0"></text>
</g>
<g>
<title>java/lang/Thread.run (270 samples, 93.75%)</title><rect x="26.4" y="611.0" width="1106.2" height="15" fill="#56e756" rx="2" ry="2"/>
<text x="29.4" y="622.0">java/lang/Thread.run</text>
</g>
<g>
<title>java/util/concurrent/ThreadPoolExecutor$Worker.run (270 samples, 93.75%)</title><rect x="26.4" y="595.0" width="1106.2" height="15" fill="#59ea59" rx="2" ry="2"/>
<text x="29.4" y="606.0">java/util/concurrent/ThreadPoolExecutor$Worker.run</text>
</g>
<g>
<title>java/util/concurrent/ThreadPoolExecutor.runWorker (270 samples, 93.75%)</title><rect x="26.4" y="579.0" width="1106.2" height="15" fill="#63f463" rx="2" ry="2"/>
<text x="29.4" y="590.0">java/util/concurrent/ThreadPoolExecutor.runWorker</text>
</g>
<g>
<title>java/util/concurrent/FutureTask.run (235 samples, 81.60%)</title><rect x="26.4" y="563.0" width="962.8" height="15" fill="#58e958" rx="2" ry="2"/>
<text x="29.4" y="574.0">java/util/concurrent/FutureTask.run</text>
</g>
<g>
<title>org/apache/druid/indexing/overlord/ForkingTaskRunner$1.call (235 samples, 81.60%)</title><rect x="26.4" y="547.0" width="962.8" height="15" fill="#5eef5e" rx="2" ry="2"/>
<text x="29.4" y="558.0">org/apache/druid/indexing/overlord/ForkingTaskRunner$1.call</text>
</g>
<g>
<title>org/apache/druid/indexing/overlord/ForkingTaskRunner$1.call (235 samples, 81.60%)</title><rect x="26.4" y="531.0" width="962.8" height="15" fill="#66f766" rx="2" ry="2"/>
<text x="29.4" y="542.0">org/apache/druid/indexing/overlord/ForkingTaskRunner$1.call</text>
</g>
<g>
<title>com/google/common/io/ByteStreams.copy (235 samples, 81.60%)</title><rect x="26.4" y="515.0" width="962.8" height="15" fill="#6cfd6c" rx="2" ry="2"/>
<text x="29.4" y="526.0">com/google/common/io/ByteStreams.copy</text>
</g>
<g>
<title>java/io/BufferedInputStream.read (2 samples, 0.69%)</title><rect x="26.4" y="499.0" width="8.2" height="15" fill="#5eef5e" rx="2" ry="2"/>
<text x="29.4" y="510.0"></text>
</g>
<g>
<title>java/io/FileOutputStream.write (128 samples, 44.44%)</title><rect x="34.6" y="499.0" width="524.4" height="15" fill="#66f766" rx="2" ry="2"/>
<text x="37.6" y="510.0">java/io/FileOutputStream.write</text>
</g>
<g>
<title>java/io/FileOutputStream.writeBytes (123 samples, 42.71%)</title><rect x="55.1" y="483.0" width="503.9" height="15" fill="#67f867" rx="2" ry="2"/>
<text x="58.1" y="494.0">java/io/FileOutputStream.writeBytes</text>
</g>
<g>
<title>Java_java_io_FileOutputStream_writeBytes (122 samples, 42.36%)</title><rect x="59.2" y="467.0" width="499.8" height="15" fill="#f97a7a" rx="2" ry="2"/>
<text x="62.2" y="478.0">Java_java_io_FileOutputStream_writeBytes</text>
</g>
<g>
<title>/usr/lib/jvm/java-8-openjdk-amd64/jre/lib/amd64/libjava.so (120 samples, 41.67%)</title><rect x="59.2" y="451.0" width="491.6" height="15" fill="#fd8080" rx="2" ry="2"/>
<text x="62.2" y="462.0">/usr/lib/jvm/java-8-openjdk-amd64/jre/lib/amd64/libjava.so</text>
</g>
<g>
<title>/lib/x86_64-linux-gnu/libc-2.24.so (2 samples, 0.69%)</title><rect x="63.3" y="435.0" width="8.2" height="15" fill="#f77777" rx="2" ry="2"/>
<text x="66.3" y="446.0"></text>
</g>
<g>
<title>/usr/lib/jvm/java-8-openjdk-amd64/jre/lib/amd64/server/libjvm.so (5 samples, 1.74%)</title><rect x="71.5" y="435.0" width="20.4" height="15" fill="#e15b5b" rx="2" ry="2"/>
<text x="74.5" y="446.0"></text>
</g>
<g>
<title>/usr/lib/jvm/java-8-openjdk-amd64/jre/lib/amd64/server/libjvm.so (3 samples, 1.04%)</title><rect x="79.7" y="419.0" width="12.2" height="15" fill="#e35d5d" rx="2" ry="2"/>
<text x="82.7" y="430.0"></text>
</g>
<g>
<title>__libc_write (112 samples, 38.89%)</title><rect x="91.9" y="435.0" width="458.9" height="15" fill="#ee6c6c" rx="2" ry="2"/>
<text x="94.9" y="446.0">__libc_write</text>
</g>
<g>
<title>/usr/lib/jvm/java-8-openjdk-amd64/jre/lib/amd64/server/libjvm.so (2 samples, 0.69%)</title><rect x="550.8" y="451.0" width="8.2" height="15" fill="#f67676" rx="2" ry="2"/>
<text x="553.8" y="462.0"></text>
</g>
<g>
<title>java/io/FilterInputStream.read (105 samples, 36.46%)</title><rect x="559.0" y="499.0" width="430.2" height="15" fill="#5bec5b" rx="2" ry="2"/>
<text x="562.0" y="510.0">java/io/FilterInputStream.read</text>
</g>
<g>
<title>java/io/BufferedInputStream.read (104 samples, 36.11%)</title><rect x="559.0" y="483.0" width="426.1" height="15" fill="#54e554" rx="2" ry="2"/>
<text x="562.0" y="494.0">java/io/BufferedInputStream.read</text>
</g>
<g>
<title>java/io/BufferedInputStream.read1 (80 samples, 27.78%)</title><rect x="559.0" y="467.0" width="327.8" height="15" fill="#5dee5d" rx="2" ry="2"/>
<text x="562.0" y="478.0">java/io/BufferedInputStream.read1</text>
</g>
<g>
<title>java/io/BufferedInputStream.fill (80 samples, 27.78%)</title><rect x="559.0" y="451.0" width="327.8" height="15" fill="#6cfd6c" rx="2" ry="2"/>
<text x="562.0" y="462.0">java/io/BufferedInputStream.fill</text>
</g>
<g>
<title>java/io/FileInputStream.read (80 samples, 27.78%)</title><rect x="559.0" y="435.0" width="327.8" height="15" fill="#61f261" rx="2" ry="2"/>
<text x="562.0" y="446.0">java/io/FileInputStream.read</text>
</g>
<g>
<title>java/io/FileInputStream.readBytes (79 samples, 27.43%)</title><rect x="563.1" y="419.0" width="323.7" height="15" fill="#59ea59" rx="2" ry="2"/>
<text x="566.1" y="430.0">java/io/FileInputStream.readBytes</text>
</g>
<g>
<title>/usr/lib/jvm/java-8-openjdk-amd64/jre/lib/amd64/libjava.so (72 samples, 25.00%)</title><rect x="571.3" y="403.0" width="295.0" height="15" fill="#e15a5a" rx="2" ry="2"/>
<text x="574.3" y="414.0">/usr/lib/jvm/java-8-openjdk-amd64/jre/li..</text>
</g>
<g>
<title>/lib/x86_64-linux-gnu/libc-2.24.so (7 samples, 2.43%)</title><rect x="583.6" y="387.0" width="28.7" height="15" fill="#f87979" rx="2" ry="2"/>
<text x="586.6" y="398.0">/l..</text>
</g>
<g>
<title>/usr/lib/jvm/java-8-openjdk-amd64/jre/lib/amd64/libjava.so (2 samples, 0.69%)</title><rect x="612.3" y="387.0" width="8.2" height="15" fill="#fc7e7e" rx="2" ry="2"/>
<text x="615.3" y="398.0"></text>
</g>
<g>
<title>/usr/lib/jvm/java-8-openjdk-amd64/jre/lib/amd64/server/libjvm.so (11 samples, 3.82%)</title><rect x="620.5" y="387.0" width="45.1" height="15" fill="#ea6666" rx="2" ry="2"/>
<text x="623.5" y="398.0">/usr..</text>
</g>
<g>
<title>/usr/lib/jvm/java-8-openjdk-amd64/jre/lib/amd64/server/libjvm.so (2 samples, 0.69%)</title><rect x="657.4" y="371.0" width="8.2" height="15" fill="#e66161" rx="2" ry="2"/>
<text x="660.4" y="382.0"></text>
</g>
<g>
<title>__GI___read (49 samples, 17.01%)</title><rect x="665.6" y="387.0" width="200.7" height="15" fill="#f17070" rx="2" ry="2"/>
<text x="668.6" y="398.0">__GI___read</text>
</g>
<g>
<title>/usr/lib/jvm/java-8-openjdk-amd64/jre/lib/amd64/server/libjvm.so (5 samples, 1.74%)</title><rect x="866.3" y="403.0" width="20.5" height="15" fill="#f57474" rx="2" ry="2"/>
<text x="869.3" y="414.0"></text>
</g>
<g>
<title>java/io/FileInputStream.available (24 samples, 8.33%)</title><rect x="886.8" y="467.0" width="98.3" height="15" fill="#52e352" rx="2" ry="2"/>
<text x="889.8" y="478.0">java/io/File..</text>
</g>
<g>
<title>java/io/FileInputStream.available0 (21 samples, 7.29%)</title><rect x="886.8" y="451.0" width="86.0" height="15" fill="#67f867" rx="2" ry="2"/>
<text x="889.8" y="462.0">java/io/Fi..</text>
</g>
<g>
<title>Java_java_io_FileInputStream_available0 (21 samples, 7.29%)</title><rect x="886.8" y="435.0" width="86.0" height="15" fill="#fe8181" rx="2" ry="2"/>
<text x="889.8" y="446.0">Java_java_..</text>
</g>
<g>
<title>/usr/lib/jvm/java-8-openjdk-amd64/jre/lib/amd64/server/libjvm.so (2 samples, 0.69%)</title><rect x="890.9" y="419.0" width="8.2" height="15" fill="#f67777" rx="2" ry="2"/>
<text x="893.9" y="430.0"></text>
</g>
<g>
<title>/usr/lib/jvm/java-8-openjdk-amd64/jre/lib/amd64/server/libjvm.so (1 samples, 0.35%)</title><rect x="895.0" y="403.0" width="4.1" height="15" fill="#e25c5c" rx="2" ry="2"/>
<text x="898.0" y="414.0"></text>
</g>
<g>
<title>__fxstat (10 samples, 3.47%)</title><rect x="899.1" y="419.0" width="41.0" height="15" fill="#ef6d6d" rx="2" ry="2"/>
<text x="902.1" y="430.0">__f..</text>
</g>
<g>
<title>ioctl (8 samples, 2.78%)</title><rect x="940.1" y="419.0" width="32.7" height="15" fill="#ef6c6c" rx="2" ry="2"/>
<text x="943.1" y="430.0">io..</text>
</g>
<g>
<title>jbyte_disjoint_arraycopy (3 samples, 1.04%)</title><rect x="972.8" y="451.0" width="12.3" height="15" fill="#e15a5a" rx="2" ry="2"/>
<text x="975.8" y="462.0"></text>
</g>
<g>
<title>java/io/FileOutputStream.writeBytes (1 samples, 0.35%)</title><rect x="985.1" y="483.0" width="4.1" height="15" fill="#6dfe6d" rx="2" ry="2"/>
<text x="988.1" y="494.0"></text>
</g>
<g>
<title>java/util/concurrent/ScheduledThreadPoolExecutor$ScheduledFutureTask.run (1 samples, 0.35%)</title><rect x="989.2" y="563.0" width="4.1" height="15" fill="#56e756" rx="2" ry="2"/>
<text x="992.2" y="574.0"></text>
</g>
<g>
<title>java/util/concurrent/ScheduledThreadPoolExecutor$ScheduledFutureTask.access$201 (1 samples, 0.35%)</title><rect x="989.2" y="547.0" width="4.1" height="15" fill="#67f867" rx="2" ry="2"/>
<text x="992.2" y="558.0"></text>
</g>
<g>
<title>java/util/concurrent/FutureTask.run (1 samples, 0.35%)</title><rect x="989.2" y="531.0" width="4.1" height="15" fill="#67f867" rx="2" ry="2"/>
<text x="992.2" y="542.0"></text>
</g>
<g>
<title>java/util/concurrent/Executors$RunnableAdapter.call (1 samples, 0.35%)</title><rect x="989.2" y="515.0" width="4.1" height="15" fill="#55e655" rx="2" ry="2"/>
<text x="992.2" y="526.0"></text>
</g>
<g>
<title>org/apache/druid/java/util/common/concurrent/ScheduledExecutors$2.run (1 samples, 0.35%)</title><rect x="989.2" y="499.0" width="4.1" height="15" fill="#5ff05f" rx="2" ry="2"/>
<text x="992.2" y="510.0"></text>
</g>
<g>
<title>org/apache/druid/java/util/common/concurrent/ScheduledExecutors$1.call (1 samples, 0.35%)</title><rect x="989.2" y="483.0" width="4.1" height="15" fill="#68f968" rx="2" ry="2"/>
<text x="992.2" y="494.0"></text>
</g>
<g>
<title>org/apache/druid/java/util/common/concurrent/ScheduledExecutors$1.call (1 samples, 0.35%)</title><rect x="989.2" y="467.0" width="4.1" height="15" fill="#57e857" rx="2" ry="2"/>
<text x="992.2" y="478.0"></text>
</g>
<g>
<title>org/apache/druid/security/basic/authentication/db/cache/CoordinatorPollingBasicAuthenticatorCacheManager$$Lambda$52/1625413756.run (1 samples, 0.35%)</title><rect x="989.2" y="451.0" width="4.1" height="15" fill="#6dfe6d" rx="2" ry="2"/>
<text x="992.2" y="462.0"></text>
</g>
<g>
<title>org/apache/druid/security/basic/authentication/db/cache/CoordinatorPollingBasicAuthenticatorCacheManager.lambda$start$0 (1 samples, 0.35%)</title><rect x="989.2" y="435.0" width="4.1" height="15" fill="#60f160" rx="2" ry="2"/>
<text x="992.2" y="446.0"></text>
</g>
<g>
<title>org/apache/druid/security/basic/authentication/db/cache/CoordinatorPollingBasicAuthenticatorCacheManager.fetchUserMapFromCoordinator (1 samples, 0.35%)</title><rect x="989.2" y="419.0" width="4.1" height="15" fill="#63f463" rx="2" ry="2"/>
<text x="992.2" y="430.0"></text>
</g>
<g>
<title>org/apache/druid/java/util/common/RetryUtils.retry (1 samples, 0.35%)</title><rect x="989.2" y="403.0" width="4.1" height="15" fill="#54e554" rx="2" ry="2"/>
<text x="992.2" y="414.0"></text>
</g>
<g>
<title>org/apache/druid/java/util/common/RetryUtils.retry (1 samples, 0.35%)</title><rect x="989.2" y="387.0" width="4.1" height="15" fill="#6dfe6d" rx="2" ry="2"/>
<text x="992.2" y="398.0"></text>
</g>
<g>
<title>org/apache/druid/java/util/common/RetryUtils.retry (1 samples, 0.35%)</title><rect x="989.2" y="371.0" width="4.1" height="15" fill="#61f261" rx="2" ry="2"/>
<text x="992.2" y="382.0"></text>
</g>
<g>
<title>org/apache/druid/security/basic/authentication/db/cache/CoordinatorPollingBasicAuthenticatorCacheManager$$Lambda$48/1692915352.perform (1 samples, 0.35%)</title><rect x="989.2" y="355.0" width="4.1" height="15" fill="#66f766" rx="2" ry="2"/>
<text x="992.2" y="366.0"></text>
</g>
<g>
<title>org/apache/druid/security/basic/authentication/db/cache/CoordinatorPollingBasicAuthenticatorCacheManager.lambda$fetchUserMapFromCoordinator$1 (1 samples, 0.35%)</title><rect x="989.2" y="339.0" width="4.1" height="15" fill="#59ea59" rx="2" ry="2"/>
<text x="992.2" y="350.0"></text>
</g>
<g>
<title>org/apache/druid/security/basic/authentication/db/cache/CoordinatorPollingBasicAuthenticatorCacheManager.tryFetchUserMapFromCoordinator (1 samples, 0.35%)</title><rect x="989.2" y="323.0" width="4.1" height="15" fill="#61f261" rx="2" ry="2"/>
<text x="992.2" y="334.0"></text>
</g>
<g>
<title>org/apache/druid/discovery/DruidLeaderClient.go (1 samples, 0.35%)</title><rect x="989.2" y="307.0" width="4.1" height="15" fill="#60f160" rx="2" ry="2"/>
<text x="992.2" y="318.0"></text>
</g>
<g>
<title>org/apache/druid/java/util/http/client/AbstractHttpClient.go (1 samples, 0.35%)</title><rect x="989.2" y="291.0" width="4.1" height="15" fill="#56e756" rx="2" ry="2"/>
<text x="992.2" y="302.0"></text>
</g>
<g>
<title>org/apache/druid/java/util/http/client/CredentialedHttpClient.go (1 samples, 0.35%)</title><rect x="989.2" y="275.0" width="4.1" height="15" fill="#6afb6a" rx="2" ry="2"/>
<text x="992.2" y="286.0"></text>
</g>
<g>
<title>org/apache/druid/java/util/http/client/NettyHttpClient.go (1 samples, 0.35%)</title><rect x="989.2" y="259.0" width="4.1" height="15" fill="#65f665" rx="2" ry="2"/>
<text x="992.2" y="270.0"></text>
</g>
<g>
<title>org/apache/druid/java/util/http/client/pool/ResourcePool.take (1 samples, 0.35%)</title><rect x="989.2" y="243.0" width="4.1" height="15" fill="#67f867" rx="2" ry="2"/>
<text x="992.2" y="254.0"></text>
</g>
<g>
<title>org/apache/druid/java/util/http/client/pool/ResourcePool$ImmediateCreationResourceHolder.get (1 samples, 0.35%)</title><rect x="989.2" y="227.0" width="4.1" height="15" fill="#61f261" rx="2" ry="2"/>
<text x="992.2" y="238.0"></text>
</g>
<g>
<title>org/apache/druid/java/util/http/client/pool/ChannelResourceFactory.generate (1 samples, 0.35%)</title><rect x="989.2" y="211.0" width="4.1" height="15" fill="#68f968" rx="2" ry="2"/>
<text x="992.2" y="222.0"></text>
</g>
<g>
<title>org/apache/druid/java/util/http/client/pool/ChannelResourceFactory.generate (1 samples, 0.35%)</title><rect x="989.2" y="195.0" width="4.1" height="15" fill="#60f160" rx="2" ry="2"/>
<text x="992.2" y="206.0"></text>
</g>
<g>
<title>java/net/InetSocketAddress.&lt;init&gt; (1 samples, 0.35%)</title><rect x="989.2" y="179.0" width="4.1" height="15" fill="#60f160" rx="2" ry="2"/>
<text x="992.2" y="190.0"></text>
</g>
<g>
<title>java/net/InetAddress.getByName (1 samples, 0.35%)</title><rect x="989.2" y="163.0" width="4.1" height="15" fill="#60f160" rx="2" ry="2"/>
<text x="992.2" y="174.0"></text>
</g>
<g>
<title>java/net/InetAddress.getAllByName (1 samples, 0.35%)</title><rect x="989.2" y="147.0" width="4.1" height="15" fill="#62f362" rx="2" ry="2"/>
<text x="992.2" y="158.0"></text>
</g>
<g>
<title>java/net/InetAddress.getAllByName (1 samples, 0.35%)</title><rect x="989.2" y="131.0" width="4.1" height="15" fill="#51e251" rx="2" ry="2"/>
<text x="992.2" y="142.0"></text>
</g>
<g>
<title>java/net/InetAddress.getAllByName0 (1 samples, 0.35%)</title><rect x="989.2" y="115.0" width="4.1" height="15" fill="#50e150" rx="2" ry="2"/>
<text x="992.2" y="126.0"></text>
</g>
<g>
<title>java/net/InetAddress.getAddressesFromNameService (1 samples, 0.35%)</title><rect x="989.2" y="99.0" width="4.1" height="15" fill="#62f362" rx="2" ry="2"/>
<text x="992.2" y="110.0"></text>
</g>
<g>
<title>java/net/InetAddress$2.lookupAllHostAddr (1 samples, 0.35%)</title><rect x="989.2" y="83.0" width="4.1" height="15" fill="#51e251" rx="2" ry="2"/>
<text x="992.2" y="94.0"></text>
</g>
<g>
<title>java/net/Inet4AddressImpl.lookupAllHostAddr (1 samples, 0.35%)</title><rect x="989.2" y="67.0" width="4.1" height="15" fill="#56e756" rx="2" ry="2"/>
<text x="992.2" y="78.0"></text>
</g>
<g>
<title>[unknown] (1 samples, 0.35%)</title><rect x="989.2" y="51.0" width="4.1" height="15" fill="#ed6a6a" rx="2" ry="2"/>
<text x="992.2" y="62.0"></text>
</g>
<g>
<title>__res_iclose (1 samples, 0.35%)</title><rect x="989.2" y="35.0" width="4.1" height="15" fill="#f97b7b" rx="2" ry="2"/>
<text x="992.2" y="46.0"></text>
</g>
<g>
<title>org/jboss/netty/util/internal/DeadLockProofWorker$1.run (34 samples, 11.81%)</title><rect x="993.3" y="563.0" width="139.3" height="15" fill="#5bec5b" rx="2" ry="2"/>
<text x="996.3" y="574.0">org/jboss/netty/u..</text>
</g>
<g>
<title>org/jboss/netty/util/ThreadRenamingRunnable.run (34 samples, 11.81%)</title><rect x="993.3" y="547.0" width="139.3" height="15" fill="#6bfc6b" rx="2" ry="2"/>
<text x="996.3" y="558.0">org/jboss/netty/u..</text>
</g>
<g>
<title>org/jboss/netty/channel/socket/nio/NioWorker.run (34 samples, 11.81%)</title><rect x="993.3" y="531.0" width="139.3" height="15" fill="#63f463" rx="2" ry="2"/>
<text x="996.3" y="542.0">org/jboss/netty/c..</text>
</g>
<g>
<title>org/jboss/netty/channel/socket/nio/AbstractNioWorker.run (34 samples, 11.81%)</title><rect x="993.3" y="515.0" width="139.3" height="15" fill="#63f463" rx="2" ry="2"/>
<text x="996.3" y="526.0">org/jboss/netty/c..</text>
</g>
<g>
<title>org/jboss/netty/channel/socket/nio/AbstractNioSelector.run (34 samples, 11.81%)</title><rect x="993.3" y="499.0" width="139.3" height="15" fill="#6bfc6b" rx="2" ry="2"/>
<text x="996.3" y="510.0">org/jboss/netty/c..</text>
</g>
<g>
<title>org/jboss/netty/channel/socket/nio/AbstractNioSelector.processTaskQueue (1 samples, 0.35%)</title><rect x="993.3" y="483.0" width="4.1" height="15" fill="#55e655" rx="2" ry="2"/>
<text x="996.3" y="494.0"></text>
</g>
<g>
<title>org/jboss/netty/channel/socket/nio/AbstractNioSelector.select (31 samples, 10.76%)</title><rect x="997.4" y="483.0" width="127.0" height="15" fill="#58e958" rx="2" ry="2"/>
<text x="1000.4" y="494.0">org/jboss/netty/..</text>
</g>
<g>
<title>org/jboss/netty/channel/socket/nio/SelectorUtil.select (31 samples, 10.76%)</title><rect x="997.4" y="467.0" width="127.0" height="15" fill="#51e251" rx="2" ry="2"/>
<text x="1000.4" y="478.0">org/jboss/netty/..</text>
</g>
<g>
<title>sun/nio/ch/SelectorImpl.select (31 samples, 10.76%)</title><rect x="997.4" y="451.0" width="127.0" height="15" fill="#55e655" rx="2" ry="2"/>
<text x="1000.4" y="462.0">sun/nio/ch/Selec..</text>
</g>
<g>
<title>sun/nio/ch/SelectorImpl.lockAndDoSelect (31 samples, 10.76%)</title><rect x="997.4" y="435.0" width="127.0" height="15" fill="#69fa69" rx="2" ry="2"/>
<text x="1000.4" y="446.0">sun/nio/ch/Selec..</text>
</g>
<g>
<title>sun/nio/ch/EPollSelectorImpl.doSelect (31 samples, 10.76%)</title><rect x="997.4" y="419.0" width="127.0" height="15" fill="#67f867" rx="2" ry="2"/>
<text x="1000.4" y="430.0">sun/nio/ch/EPoll..</text>
</g>
<g>
<title>java/nio/channels/spi/AbstractSelector.begin (1 samples, 0.35%)</title><rect x="1005.6" y="403.0" width="4.1" height="15" fill="#5eef5e" rx="2" ry="2"/>
<text x="1008.6" y="414.0"></text>
</g>
<g>
<title>java/nio/channels/spi/AbstractInterruptibleChannel.blockedOn (1 samples, 0.35%)</title><rect x="1005.6" y="387.0" width="4.1" height="15" fill="#5dee5d" rx="2" ry="2"/>
<text x="1008.6" y="398.0"></text>
</g>
<g>
<title>sun/nio/ch/EPollArrayWrapper.poll (27 samples, 9.38%)</title><rect x="1009.7" y="403.0" width="110.6" height="15" fill="#59ea59" rx="2" ry="2"/>
<text x="1012.7" y="414.0">sun/nio/ch/EP..</text>
</g>
<g>
<title>sun/nio/ch/EPollArrayWrapper.epollWait (25 samples, 8.68%)</title><rect x="1013.8" y="387.0" width="102.5" height="15" fill="#65f665" rx="2" ry="2"/>
<text x="1016.8" y="398.0">sun/nio/ch/E..</text>
</g>
<g>
<title>epoll_wait (24 samples, 8.33%)</title><rect x="1017.9" y="371.0" width="98.3" height="15" fill="#eb6767" rx="2" ry="2"/>
<text x="1020.9" y="382.0">epoll_wait</text>
</g>
<g>
<title>sun/nio/ch/EPollArrayWrapper.updateRegistrations (1 samples, 0.35%)</title><rect x="1116.2" y="387.0" width="4.0" height="15" fill="#51e251" rx="2" ry="2"/>
<text x="1119.2" y="398.0"></text>
</g>
<g>
<title>sun/nio/ch/EPollSelectorImpl.updateSelectedKeys (1 samples, 0.35%)</title><rect x="1120.3" y="403.0" width="4.1" height="15" fill="#5eef5e" rx="2" ry="2"/>
<text x="1123.3" y="414.0"></text>
</g>
<g>
<title>org/jboss/netty/channel/socket/nio/AbstractNioWorker.process (2 samples, 0.69%)</title><rect x="1124.4" y="483.0" width="8.2" height="15" fill="#6bfc6b" rx="2" ry="2"/>
<text x="1127.4" y="494.0"></text>
</g>
<g>
<title>org/jboss/netty/channel/socket/nio/NioWorker.read (1 samples, 0.35%)</title><rect x="1124.4" y="467.0" width="4.1" height="15" fill="#69fa69" rx="2" ry="2"/>
<text x="1127.4" y="478.0"></text>
</g>
<g>
<title>org/jboss/netty/channel/Channels.fireMessageReceived (1 samples, 0.35%)</title><rect x="1124.4" y="451.0" width="4.1" height="15" fill="#50e150" rx="2" ry="2"/>
<text x="1127.4" y="462.0"></text>
</g>
<g>
<title>org/jboss/netty/channel/Channels.fireMessageReceived (1 samples, 0.35%)</title><rect x="1124.4" y="435.0" width="4.1" height="15" fill="#5eef5e" rx="2" ry="2"/>
<text x="1127.4" y="446.0"></text>
</g>
<g>
<title>org/jboss/netty/channel/DefaultChannelPipeline.sendUpstream (1 samples, 0.35%)</title><rect x="1124.4" y="419.0" width="4.1" height="15" fill="#5ced5c" rx="2" ry="2"/>
<text x="1127.4" y="430.0"></text>
</g>
<g>
<title>org/jboss/netty/channel/DefaultChannelPipeline.sendUpstream (1 samples, 0.35%)</title><rect x="1124.4" y="403.0" width="4.1" height="15" fill="#63f463" rx="2" ry="2"/>
<text x="1127.4" y="414.0"></text>
</g>
<g>
<title>org/jboss/netty/handler/codec/http/HttpClientCodec.handleUpstream (1 samples, 0.35%)</title><rect x="1124.4" y="387.0" width="4.1" height="15" fill="#60f160" rx="2" ry="2"/>
<text x="1127.4" y="398.0"></text>
</g>
<g>
<title>org/jboss/netty/channel/SimpleChannelUpstreamHandler.handleUpstream (1 samples, 0.35%)</title><rect x="1124.4" y="371.0" width="4.1" height="15" fill="#5ced5c" rx="2" ry="2"/>
<text x="1127.4" y="382.0"></text>
</g>
<g>
<title>org/jboss/netty/handler/codec/replay/ReplayingDecoder.messageReceived (1 samples, 0.35%)</title><rect x="1124.4" y="355.0" width="4.1" height="15" fill="#57e857" rx="2" ry="2"/>
<text x="1127.4" y="366.0"></text>
</g>
<g>
<title>org/jboss/netty/handler/codec/replay/ReplayingDecoder.callDecode (1 samples, 0.35%)</title><rect x="1124.4" y="339.0" width="4.1" height="15" fill="#61f261" rx="2" ry="2"/>
<text x="1127.4" y="350.0"></text>
</g>
<g>
<title>org/jboss/netty/handler/codec/http/HttpClientCodec$Decoder.decode (1 samples, 0.35%)</title><rect x="1124.4" y="323.0" width="4.1" height="15" fill="#63f463" rx="2" ry="2"/>
<text x="1127.4" y="334.0"></text>
</g>
<g>
<title>org/jboss/netty/handler/codec/http/HttpClientCodec$Decoder.decode (1 samples, 0.35%)</title><rect x="1124.4" y="307.0" width="4.1" height="15" fill="#63f463" rx="2" ry="2"/>
<text x="1127.4" y="318.0"></text>
</g>
<g>
<title>org/jboss/netty/handler/codec/http/HttpMessageDecoder.decode (1 samples, 0.35%)</title><rect x="1124.4" y="291.0" width="4.1" height="15" fill="#5ced5c" rx="2" ry="2"/>
<text x="1127.4" y="302.0"></text>
</g>
<g>
<title>org/jboss/netty/handler/codec/http/HttpMessageDecoder.readFixedLengthContent (1 samples, 0.35%)</title><rect x="1124.4" y="275.0" width="4.1" height="15" fill="#51e251" rx="2" ry="2"/>
<text x="1127.4" y="286.0"></text>
</g>
<g>
<title>org/jboss/netty/handler/codec/replay/ReplayingDecoderBuffer.readBytes (1 samples, 0.35%)</title><rect x="1124.4" y="259.0" width="4.1" height="15" fill="#61f261" rx="2" ry="2"/>
<text x="1127.4" y="270.0"></text>
</g>
<g>
<title>org/jboss/netty/buffer/AbstractChannelBuffer.readBytes (1 samples, 0.35%)</title><rect x="1124.4" y="243.0" width="4.1" height="15" fill="#51e251" rx="2" ry="2"/>
<text x="1127.4" y="254.0"></text>
</g>
<g>
<title>org/jboss/netty/buffer/AbstractChannelBuffer.writeBytes (1 samples, 0.35%)</title><rect x="1124.4" y="227.0" width="4.1" height="15" fill="#64f564" rx="2" ry="2"/>
<text x="1127.4" y="238.0"></text>
</g>
<g>
<title>sun/nio/ch/Util$3.iterator (1 samples, 0.35%)</title><rect x="1128.5" y="467.0" width="4.1" height="15" fill="#5eef5e" rx="2" ry="2"/>
<text x="1131.5" y="478.0"></text>
</g>
<g>
<title>java/util/HashSet.iterator (1 samples, 0.35%)</title><rect x="1128.5" y="451.0" width="4.1" height="15" fill="#57e857" rx="2" ry="2"/>
<text x="1131.5" y="462.0"></text>
</g>
<g>
<title>java/util/HashMap$KeySet.iterator (1 samples, 0.35%)</title><rect x="1128.5" y="435.0" width="4.1" height="15" fill="#6dfe6d" rx="2" ry="2"/>
<text x="1131.5" y="446.0"></text>
</g>
<g>
<title>java/util/HashMap$KeyIterator.&lt;init&gt; (1 samples, 0.35%)</title><rect x="1128.5" y="419.0" width="4.1" height="15" fill="#60f160" rx="2" ry="2"/>
<text x="1131.5" y="430.0"></text>
</g>
<g>
<title>java/util/HashMap$HashIterator.&lt;init&gt; (1 samples, 0.35%)</title><rect x="1128.5" y="403.0" width="4.1" height="15" fill="#5ced5c" rx="2" ry="2"/>
<text x="1131.5" y="414.0"></text>
</g>
<g>
<title>start_thread (14 samples, 4.86%)</title><rect x="1132.6" y="611.0" width="57.4" height="15" fill="#fa7b7b" rx="2" ry="2"/>
<text x="1135.6" y="622.0">start_..</text>
</g>
<g>
<title>/usr/lib/jvm/java-8-openjdk-amd64/jre/lib/amd64/server/libjvm.so (14 samples, 4.86%)</title><rect x="1132.6" y="595.0" width="57.4" height="15" fill="#eb6767" rx="2" ry="2"/>
<text x="1135.6" y="606.0">/usr/l..</text>
</g>
<g>
<title>/usr/lib/jvm/java-8-openjdk-amd64/jre/lib/amd64/server/libjvm.so (14 samples, 4.86%)</title><rect x="1132.6" y="579.0" width="57.4" height="15" fill="#fc7e7e" rx="2" ry="2"/>
<text x="1135.6" y="590.0">/usr/l..</text>
</g>
<g>
<title>/usr/lib/jvm/java-8-openjdk-amd64/jre/lib/amd64/server/libjvm.so (14 samples, 4.86%)</title><rect x="1132.6" y="563.0" width="57.4" height="15" fill="#e96565" rx="2" ry="2"/>
<text x="1135.6" y="574.0">/usr/l..</text>
</g>
<g>
<title>/usr/lib/jvm/java-8-openjdk-amd64/jre/lib/amd64/server/libjvm.so (14 samples, 4.86%)</title><rect x="1132.6" y="547.0" width="57.4" height="15" fill="#f47474" rx="2" ry="2"/>
<text x="1135.6" y="558.0">/usr/l..</text>
</g>
<g>
<title>/usr/lib/jvm/java-8-openjdk-amd64/jre/lib/amd64/server/libjvm.so (14 samples, 4.86%)</title><rect x="1132.6" y="531.0" width="57.4" height="15" fill="#f37272" rx="2" ry="2"/>
<text x="1135.6" y="542.0">/usr/l..</text>
</g>
<g>
<title>/usr/lib/jvm/java-8-openjdk-amd64/jre/lib/amd64/server/libjvm.so (2 samples, 0.69%)</title><rect x="1136.7" y="515.0" width="8.2" height="15" fill="#f37272" rx="2" ry="2"/>
<text x="1139.7" y="526.0"></text>
</g>
<g>
<title>/usr/lib/jvm/java-8-openjdk-amd64/jre/lib/amd64/server/libjvm.so (2 samples, 0.69%)</title><rect x="1136.7" y="499.0" width="8.2" height="15" fill="#f67676" rx="2" ry="2"/>
<text x="1139.7" y="510.0"></text>
</g>
<g>
<title>__lll_unlock_wake (1 samples, 0.35%)</title><rect x="1136.7" y="483.0" width="4.1" height="15" fill="#e35d5d" rx="2" ry="2"/>
<text x="1139.7" y="494.0"></text>
</g>
<g>
<title>pthread_cond_timedwait@@GLIBC_2.3.2 (1 samples, 0.35%)</title><rect x="1140.8" y="483.0" width="4.1" height="15" fill="#f16f6f" rx="2" ry="2"/>
<text x="1143.8" y="494.0"></text>
</g>
<g>
<title>__lll_unlock_wake (2 samples, 0.69%)</title><rect x="1144.9" y="515.0" width="8.2" height="15" fill="#f27171" rx="2" ry="2"/>
<text x="1147.9" y="526.0"></text>
</g>
<g>
<title>pthread_cond_destroy@@GLIBC_2.3.2 (2 samples, 0.69%)</title><rect x="1153.1" y="515.0" width="8.2" height="15" fill="#e45e5e" rx="2" ry="2"/>
<text x="1156.1" y="526.0"></text>
</g>
<g>
<title>pthread_cond_timedwait@@GLIBC_2.3.2 (7 samples, 2.43%)</title><rect x="1161.3" y="515.0" width="28.7" height="15" fill="#e15a5a" rx="2" ry="2"/>
<text x="1164.3" y="526.0">pt..</text>
</g>
</g>
</svg>
