<?xml version="1.0" standalone="no"?>
<!DOCTYPE svg PUBLIC "-//W3C//DTD SVG 1.1//EN" "http://www.w3.org/Graphics/SVG/1.1/DTD/svg11.dtd">
<svg version="1.1" width="1200" height="614" onload="init(evt)" viewBox="0 0 1200 614" xmlns="http://www.w3.org/2000/svg" xmlns:xlink="http://www.w3.org/1999/xlink">
<style type="text/css">
	text { font-family:Verdana; font-size:12px; fill:rgb(0,0,0); }
	#search { opacity:0.1; cursor:pointer; }
	#search:hover, #search.show { opacity:1; }
	#subtitle { text-anchor:middle; font-color:rgb(160,160,160); }
	#title { text-anchor:middle; font-size:17px}
	#unzoom { cursor:pointer; }
	#frames > *:hover { stroke:black; stroke-width:0.5; cursor:pointer; }
	.hide { display:none; }
	.parent { opacity:0.5; }
</style>
<script type="text/ecmascript">
<![CDATA[
	"use strict";
	var details, searchbtn, unzoombtn, matchedtxt, svg, searching;
	function init(evt) {
		details = document.getElementById("details").firstChild;
		searchbtn = document.getElementById("search");
		unzoombtn = document.getElementById("unzoom");
		matchedtxt = document.getElementById("matched");
		svg = document.getElementsByTagName("svg")[0];
		searching = 0;
	}

	window.addEventListener("click", function(e) {
		var target = find_group(e.target);
		if (target) {
			if (target.nodeName == "a") {
				if (e.ctrlKey === false) return;
				e.preventDefault();
			}
			if (target.classList.contains("parent")) unzoom();
			zoom(target);
		}
		else if (e.target.id == "unzoom") unzoom();
		else if (e.target.id == "search") search_prompt();
	}, false)

	// mouse-over for info
	// show
	window.addEventListener("mouseover", function(e) {
		var target = find_group(e.target);
		if (target) details.nodeValue = "Function: " + g_to_text(target);
	}, false)

	// clear
	window.addEventListener("mouseout", function(e) {
		var target = find_group(e.target);
		if (target) details.nodeValue = ' ';
	}, false)

	// ctrl-F for search
	window.addEventListener("keydown",function (e) {
		if (e.keyCode === 114 || (e.ctrlKey && e.keyCode === 70)) {
			e.preventDefault();
			search_prompt();
		}
	}, false)

	// functions
	function find_child(node, selector) {
		var children = node.querySelectorAll(selector);
		if (children.length) return children[0];
		return;
	}
	function find_group(node) {
		var parent = node.parentElement;
		if (!parent) return;
		if (parent.id == "frames") return node;
		return find_group(parent);
	}
	function orig_save(e, attr, val) {
		if (e.attributes["_orig_" + attr] != undefined) return;
		if (e.attributes[attr] == undefined) return;
		if (val == undefined) val = e.attributes[attr].value;
		e.setAttribute("_orig_" + attr, val);
	}
	function orig_load(e, attr) {
		if (e.attributes["_orig_"+attr] == undefined) return;
		e.attributes[attr].value = e.attributes["_orig_" + attr].value;
		e.removeAttribute("_orig_"+attr);
	}
	function g_to_text(e) {
		var text = find_child(e, "title").firstChild.nodeValue;
		return (text)
	}
	function g_to_func(e) {
		var func = g_to_text(e);
		// if there's any manipulation we want to do to the function
		// name before it's searched, do it here before returning.
		return (func);
	}
	function update_text(e) {
		var r = find_child(e, "rect");
		var t = find_child(e, "text");
		var w = parseFloat(r.attributes.width.value) -3;
		var txt = find_child(e, "title").textContent.replace(/\([^(]*\)$/,"");
		t.attributes.x.value = parseFloat(r.attributes.x.value) + 3;

		// Smaller than this size won't fit anything
		if (w < 2 * 12 * 0.59) {
			t.textContent = "";
			return;
		}

		t.textContent = txt;
		// Fit in full text width
		if (/^ *$/.test(txt) || t.getSubStringLength(0, txt.length) < w)
			return;

		for (var x = txt.length - 2; x > 0; x--) {
			if (t.getSubStringLength(0, x + 2) <= w) {
				t.textContent = txt.substring(0, x) + "..";
				return;
			}
		}
		t.textContent = "";
	}

	// zoom
	function zoom_reset(e) {
		if (e.attributes != undefined) {
			orig_load(e, "x");
			orig_load(e, "width");
		}
		if (e.childNodes == undefined) return;
		for (var i = 0, c = e.childNodes; i < c.length; i++) {
			zoom_reset(c[i]);
		}
	}
	function zoom_child(e, x, ratio) {
		if (e.attributes != undefined) {
			if (e.attributes.x != undefined) {
				orig_save(e, "x");
				e.attributes.x.value = (parseFloat(e.attributes.x.value) - x - 10) * ratio + 10;
				if (e.tagName == "text")
					e.attributes.x.value = find_child(e.parentNode, "rect[x]").attributes.x.value + 3;
			}
			if (e.attributes.width != undefined) {
				orig_save(e, "width");
				e.attributes.width.value = parseFloat(e.attributes.width.value) * ratio;
			}
		}

		if (e.childNodes == undefined) return;
		for (var i = 0, c = e.childNodes; i < c.length; i++) {
			zoom_child(c[i], x - 10, ratio);
		}
	}
	function zoom_parent(e) {
		if (e.attributes) {
			if (e.attributes.x != undefined) {
				orig_save(e, "x");
				e.attributes.x.value = 10;
			}
			if (e.attributes.width != undefined) {
				orig_save(e, "width");
				e.attributes.width.value = parseInt(svg.width.baseVal.value) - (10 * 2);
			}
		}
		if (e.childNodes == undefined) return;
		for (var i = 0, c = e.childNodes; i < c.length; i++) {
			zoom_parent(c[i]);
		}
	}
	function zoom(node) {
		var attr = find_child(node, "rect").attributes;
		var width = parseFloat(attr.width.value);
		var xmin = parseFloat(attr.x.value);
		var xmax = parseFloat(xmin + width);
		var ymin = parseFloat(attr.y.value);
		var ratio = (svg.width.baseVal.value - 2 * 10) / width;

		// XXX: Workaround for JavaScript float issues (fix me)
		var fudge = 0.0001;

		unzoombtn.classList.remove("hide");

		var el = document.getElementById("frames").children;
		for (var i = 0; i < el.length; i++) {
			var e = el[i];
			var a = find_child(e, "rect").attributes;
			var ex = parseFloat(a.x.value);
			var ew = parseFloat(a.width.value);
			var upstack;
			// Is it an ancestor
			if (0 == 0) {
				upstack = parseFloat(a.y.value) > ymin;
			} else {
				upstack = parseFloat(a.y.value) < ymin;
			}
			if (upstack) {
				// Direct ancestor
				if (ex <= xmin && (ex+ew+fudge) >= xmax) {
					e.classList.add("parent");
					zoom_parent(e);
					update_text(e);
				}
				// not in current path
				else
					e.classList.add("hide");
			}
			// Children maybe
			else {
				// no common path
				if (ex < xmin || ex + fudge >= xmax) {
					e.classList.add("hide");
				}
				else {
					zoom_child(e, xmin, ratio);
					update_text(e);
				}
			}
		}
	}
	function unzoom() {
		unzoombtn.classList.add("hide");
		var el = document.getElementById("frames").children;
		for(var i = 0; i < el.length; i++) {
			el[i].classList.remove("parent");
			el[i].classList.remove("hide");
			zoom_reset(el[i]);
			update_text(el[i]);
		}
	}

	// search
	function reset_search() {
		var el = document.querySelectorAll("#frames rect");
		for (var i = 0; i < el.length; i++) {
			orig_load(el[i], "fill")
		}
	}
	function search_prompt() {
		if (!searching) {
			var term = prompt("Enter a search term (regexp " +
			    "allowed, eg: ^ext4_)", "");
			if (term != null) {
				search(term)
			}
		} else {
			reset_search();
			searching = 0;
			searchbtn.classList.remove("show");
			searchbtn.firstChild.nodeValue = "Search"
			matchedtxt.classList.add("hide");
			matchedtxt.firstChild.nodeValue = ""
		}
	}
	function search(term) {
		var re = new RegExp(term);
		var el = document.getElementById("frames").children;
		var matches = new Object();
		var maxwidth = 0;
		for (var i = 0; i < el.length; i++) {
			var e = el[i];
			var func = g_to_func(e);
			var rect = find_child(e, "rect");
			if (func == null || rect == null)
				continue;

			// Save max width. Only works as we have a root frame
			var w = parseFloat(rect.attributes.width.value);
			if (w > maxwidth)
				maxwidth = w;

			if (func.match(re)) {
				// highlight
				var x = parseFloat(rect.attributes.x.value);
				orig_save(rect, "fill");
				rect.attributes.fill.value = "rgb(230,0,230)";

				// remember matches
				if (matches[x] == undefined) {
					matches[x] = w;
				} else {
					if (w > matches[x]) {
						// overwrite with parent
						matches[x] = w;
					}
				}
				searching = 1;
			}
		}
		if (!searching)
			return;

		searchbtn.classList.add("show");
		searchbtn.firstChild.nodeValue = "Reset Search";

		// calculate percent matched, excluding vertical overlap
		var count = 0;
		var lastx = -1;
		var lastw = 0;
		var keys = Array();
		for (k in matches) {
			if (matches.hasOwnProperty(k))
				keys.push(k);
		}
		// sort the matched frames by their x location
		// ascending, then width descending
		keys.sort(function(a, b){
			return a - b;
		});
		// Step through frames saving only the biggest bottom-up frames
		// thanks to the sort order. This relies on the tree property
		// where children are always smaller than their parents.
		var fudge = 0.0001;	// JavaScript floating point
		for (var k in keys) {
			var x = parseFloat(keys[k]);
			var w = matches[keys[k]];
			if (x >= lastx + lastw - fudge) {
				count += w;
				lastx = x;
				lastw = w;
			}
		}
		// display matched percent
		matchedtxt.classList.remove("hide");
		var pct = 100 * count / maxwidth;
		if (pct != 100) pct = pct.toFixed(1)
		matchedtxt.firstChild.nodeValue = "Matched: " + pct + "%";
	}
]]>
</script>
<rect x="0" y="0" width="100%" height="100%" fill="rgb(240,240,220)"/>
<text id="title" x="600" y="24">Flame Graph</text>
<text id="details" x="10" y="597"> </text>
<text id="unzoom" x="10" y="24" class="hide">Reset Zoom</text>
<text id="search" x="1090" y="24">Search</text>
<text id="matched" x="1090" y="597"> </text>
<g id="frames">
<g>
<title>all (39 samples, 100.00%)</title><rect x="10.0" y="563.0" width="1180.0" height="15" fill="#f27171" rx="2" ry="2"/>
<text x="13.0" y="574.0">all</text>
</g>
<g>
<title>java/lang/Thread.run (28 samples, 71.79%)</title><rect x="10.0" y="547.0" width="847.2" height="15" fill="#5bec5b" rx="2" ry="2"/>
<text x="13.0" y="558.0">java/lang/Thread.run</text>
</g>
<g>
<title>java/util/concurrent/ThreadPoolExecutor$Worker.run (28 samples, 71.79%)</title><rect x="10.0" y="531.0" width="847.2" height="15" fill="#5ff05f" rx="2" ry="2"/>
<text x="13.0" y="542.0">java/util/concurrent/ThreadPoolExecutor$Worker.run</text>
</g>
<g>
<title>java/util/concurrent/ThreadPoolExecutor.runWorker (28 samples, 71.79%)</title><rect x="10.0" y="515.0" width="847.2" height="15" fill="#59ea59" rx="2" ry="2"/>
<text x="13.0" y="526.0">java/util/concurrent/ThreadPoolExecutor.runWorker</text>
</g>
<g>
<title>java/util/concurrent/FutureTask.run (9 samples, 23.08%)</title><rect x="10.0" y="499.0" width="272.3" height="15" fill="#54e554" rx="2" ry="2"/>
<text x="13.0" y="510.0">java/util/concurrent/FutureTask.run</text>
</g>
<g>
<title>java/util/concurrent/Executors$RunnableAdapter.call (1 samples, 2.56%)</title><rect x="10.0" y="483.0" width="30.3" height="15" fill="#52e352" rx="2" ry="2"/>
<text x="13.0" y="494.0">ja..</text>
</g>
<g>
<title>java/util/concurrent/FutureTask.run (1 samples, 2.56%)</title><rect x="10.0" y="467.0" width="30.3" height="15" fill="#54e554" rx="2" ry="2"/>
<text x="13.0" y="478.0">ja..</text>
</g>
<g>
<title>java/util/concurrent/Executors$RunnableAdapter.call (1 samples, 2.56%)</title><rect x="10.0" y="451.0" width="30.3" height="15" fill="#57e857" rx="2" ry="2"/>
<text x="13.0" y="462.0">ja..</text>
</g>
<g>
<title>org/apache/curator/framework/recipes/cache/PathChildrenCache$9.run (1 samples, 2.56%)</title><rect x="10.0" y="435.0" width="30.3" height="15" fill="#54e554" rx="2" ry="2"/>
<text x="13.0" y="446.0">or..</text>
</g>
<g>
<title>org/apache/curator/framework/recipes/cache/EventOperation.invoke (1 samples, 2.56%)</title><rect x="10.0" y="419.0" width="30.3" height="15" fill="#53e453" rx="2" ry="2"/>
<text x="13.0" y="430.0">or..</text>
</g>
<g>
<title>org/apache/curator/framework/recipes/cache/PathChildrenCache.callListeners (1 samples, 2.56%)</title><rect x="10.0" y="403.0" width="30.3" height="15" fill="#61f261" rx="2" ry="2"/>
<text x="13.0" y="414.0">or..</text>
</g>
<g>
<title>org/apache/curator/framework/listen/ListenerContainer.forEach (1 samples, 2.56%)</title><rect x="10.0" y="387.0" width="30.3" height="15" fill="#6afb6a" rx="2" ry="2"/>
<text x="13.0" y="398.0">or..</text>
</g>
<g>
<title>org/apache/curator/shaded/com/google/common/util/concurrent/DirectExecutor.execute (1 samples, 2.56%)</title><rect x="10.0" y="371.0" width="30.3" height="15" fill="#62f362" rx="2" ry="2"/>
<text x="13.0" y="382.0">or..</text>
</g>
<g>
<title>org/apache/curator/framework/listen/ListenerContainer$1.run (1 samples, 2.56%)</title><rect x="10.0" y="355.0" width="30.3" height="15" fill="#5bec5b" rx="2" ry="2"/>
<text x="13.0" y="366.0">or..</text>
</g>
<g>
<title>org/apache/curator/framework/recipes/cache/PathChildrenCache$5.apply (1 samples, 2.56%)</title><rect x="10.0" y="339.0" width="30.3" height="15" fill="#65f665" rx="2" ry="2"/>
<text x="13.0" y="350.0">or..</text>
</g>
<g>
<title>org/apache/curator/framework/recipes/cache/PathChildrenCache$5.apply (1 samples, 2.56%)</title><rect x="10.0" y="323.0" width="30.3" height="15" fill="#6cfd6c" rx="2" ry="2"/>
<text x="13.0" y="334.0">or..</text>
</g>
<g>
<title>org/apache/druid/indexing/worker/WorkerTaskMonitor$1.childEvent (1 samples, 2.56%)</title><rect x="10.0" y="307.0" width="30.3" height="15" fill="#5dee5d" rx="2" ry="2"/>
<text x="13.0" y="318.0">or..</text>
</g>
<g>
<title>org/apache/curator/framework/imps/CuratorFrameworkImpl.getData (1 samples, 2.56%)</title><rect x="10.0" y="291.0" width="30.3" height="15" fill="#5ced5c" rx="2" ry="2"/>
<text x="13.0" y="302.0">or..</text>
</g>
<g>
<title>org/apache/curator/framework/imps/GetDataBuilderImpl.&lt;init&gt; (1 samples, 2.56%)</title><rect x="10.0" y="275.0" width="30.3" height="15" fill="#63f463" rx="2" ry="2"/>
<text x="13.0" y="286.0">or..</text>
</g>
<g>
<title>org/slf4j/LoggerFactory.getLogger (1 samples, 2.56%)</title><rect x="10.0" y="259.0" width="30.3" height="15" fill="#5bec5b" rx="2" ry="2"/>
<text x="13.0" y="270.0">or..</text>
</g>
<g>
<title>org/slf4j/LoggerFactory.getLogger (1 samples, 2.56%)</title><rect x="10.0" y="243.0" width="30.3" height="15" fill="#53e453" rx="2" ry="2"/>
<text x="13.0" y="254.0">or..</text>
</g>
<g>
<title>org/apache/logging/slf4j/Log4jLoggerFactory.getLogger (1 samples, 2.56%)</title><rect x="10.0" y="227.0" width="30.3" height="15" fill="#5aeb5a" rx="2" ry="2"/>
<text x="13.0" y="238.0">or..</text>
</g>
<g>
<title>org/apache/logging/log4j/spi/AbstractLoggerAdapter.getLogger (1 samples, 2.56%)</title><rect x="10.0" y="211.0" width="30.3" height="15" fill="#6cfd6c" rx="2" ry="2"/>
<text x="13.0" y="222.0">or..</text>
</g>
<g>
<title>org/apache/logging/slf4j/Log4jLoggerFactory.getContext (1 samples, 2.56%)</title><rect x="10.0" y="195.0" width="30.3" height="15" fill="#66f766" rx="2" ry="2"/>
<text x="13.0" y="206.0">or..</text>
</g>
<g>
<title>org/apache/logging/log4j/util/ReflectionUtil.getCallerClass (1 samples, 2.56%)</title><rect x="10.0" y="179.0" width="30.3" height="15" fill="#66f766" rx="2" ry="2"/>
<text x="13.0" y="190.0">or..</text>
</g>
<g>
<title>org/apache/logging/log4j/util/ReflectionUtil.getCallerClass (1 samples, 2.56%)</title><rect x="10.0" y="163.0" width="30.3" height="15" fill="#66f766" rx="2" ry="2"/>
<text x="13.0" y="174.0">or..</text>
</g>
<g>
<title>java/lang/reflect/Method.invoke (1 samples, 2.56%)</title><rect x="10.0" y="147.0" width="30.3" height="15" fill="#5ff05f" rx="2" ry="2"/>
<text x="13.0" y="158.0">ja..</text>
</g>
<g>
<title>sun/reflect/DelegatingMethodAccessorImpl.invoke (1 samples, 2.56%)</title><rect x="10.0" y="131.0" width="30.3" height="15" fill="#6cfd6c" rx="2" ry="2"/>
<text x="13.0" y="142.0">su..</text>
</g>
<g>
<title>sun/reflect/GeneratedMethodAccessor1.invoke (1 samples, 2.56%)</title><rect x="10.0" y="115.0" width="30.3" height="15" fill="#68f968" rx="2" ry="2"/>
<text x="13.0" y="126.0">su..</text>
</g>
<g>
<title>sun/reflect/Reflection.getCallerClass (1 samples, 2.56%)</title><rect x="10.0" y="99.0" width="30.3" height="15" fill="#69fa69" rx="2" ry="2"/>
<text x="13.0" y="110.0">su..</text>
</g>
<g>
<title>JVM_GetCallerClass (1 samples, 2.56%)</title><rect x="10.0" y="83.0" width="30.3" height="15" fill="#f87979" rx="2" ry="2"/>
<text x="13.0" y="94.0">JV..</text>
</g>
<g>
<title>/usr/lib/jvm/java-8-openjdk-amd64/jre/lib/amd64/server/libjvm.so (1 samples, 2.56%)</title><rect x="10.0" y="67.0" width="30.3" height="15" fill="#ed6a6a" rx="2" ry="2"/>
<text x="13.0" y="78.0">/u..</text>
</g>
<g>
<title>/usr/lib/jvm/java-8-openjdk-amd64/jre/lib/amd64/server/libjvm.so (1 samples, 2.56%)</title><rect x="10.0" y="51.0" width="30.3" height="15" fill="#e86363" rx="2" ry="2"/>
<text x="13.0" y="62.0">/u..</text>
</g>
<g>
<title>/usr/lib/jvm/java-8-openjdk-amd64/jre/lib/amd64/server/libjvm.so (1 samples, 2.56%)</title><rect x="10.0" y="35.0" width="30.3" height="15" fill="#e96565" rx="2" ry="2"/>
<text x="13.0" y="46.0">/u..</text>
</g>
<g>
<title>org/apache/druid/indexing/overlord/ForkingTaskRunner$1.call (8 samples, 20.51%)</title><rect x="40.3" y="483.0" width="242.0" height="15" fill="#65f665" rx="2" ry="2"/>
<text x="43.3" y="494.0">org/apache/druid/indexing/overlo..</text>
</g>
<g>
<title>org/apache/druid/indexing/overlord/ForkingTaskRunner$1.call (8 samples, 20.51%)</title><rect x="40.3" y="467.0" width="242.0" height="15" fill="#5ced5c" rx="2" ry="2"/>
<text x="43.3" y="478.0">org/apache/druid/indexing/overlo..</text>
</g>
<g>
<title>com/google/common/io/ByteStreams.copy (8 samples, 20.51%)</title><rect x="40.3" y="451.0" width="242.0" height="15" fill="#5bec5b" rx="2" ry="2"/>
<text x="43.3" y="462.0">com/google/common/io/ByteStreams..</text>
</g>
<g>
<title>java/io/FileOutputStream.write (4 samples, 10.26%)</title><rect x="40.3" y="435.0" width="121.0" height="15" fill="#6afb6a" rx="2" ry="2"/>
<text x="43.3" y="446.0">java/io/FileOut..</text>
</g>
<g>
<title>java/io/FileOutputStream.writeBytes (4 samples, 10.26%)</title><rect x="40.3" y="419.0" width="121.0" height="15" fill="#63f463" rx="2" ry="2"/>
<text x="43.3" y="430.0">java/io/FileOut..</text>
</g>
<g>
<title>Java_java_io_FileOutputStream_writeBytes (4 samples, 10.26%)</title><rect x="40.3" y="403.0" width="121.0" height="15" fill="#f06e6e" rx="2" ry="2"/>
<text x="43.3" y="414.0">Java_java_io_Fi..</text>
</g>
<g>
<title>/usr/lib/jvm/java-8-openjdk-amd64/jre/lib/amd64/libjava.so (4 samples, 10.26%)</title><rect x="40.3" y="387.0" width="121.0" height="15" fill="#fe8181" rx="2" ry="2"/>
<text x="43.3" y="398.0">/usr/lib/jvm/ja..</text>
</g>
<g>
<title>__libc_write (4 samples, 10.26%)</title><rect x="40.3" y="371.0" width="121.0" height="15" fill="#e86363" rx="2" ry="2"/>
<text x="43.3" y="382.0">__libc_write</text>
</g>
<g>
<title>java/io/FilterInputStream.read (4 samples, 10.26%)</title><rect x="161.3" y="435.0" width="121.0" height="15" fill="#5bec5b" rx="2" ry="2"/>
<text x="164.3" y="446.0">java/io/FilterI..</text>
</g>
<g>
<title>java/io/BufferedInputStream.read (4 samples, 10.26%)</title><rect x="161.3" y="419.0" width="121.0" height="15" fill="#61f261" rx="2" ry="2"/>
<text x="164.3" y="430.0">java/io/Buffere..</text>
</g>
<g>
<title>java/io/BufferedInputStream.read1 (1 samples, 2.56%)</title><rect x="161.3" y="403.0" width="30.2" height="15" fill="#62f362" rx="2" ry="2"/>
<text x="164.3" y="414.0">ja..</text>
</g>
<g>
<title>java/io/BufferedInputStream.fill (1 samples, 2.56%)</title><rect x="161.3" y="387.0" width="30.2" height="15" fill="#53e453" rx="2" ry="2"/>
<text x="164.3" y="398.0">ja..</text>
</g>
<g>
<title>java/io/FileInputStream.read (1 samples, 2.56%)</title><rect x="161.3" y="371.0" width="30.2" height="15" fill="#60f160" rx="2" ry="2"/>
<text x="164.3" y="382.0">ja..</text>
</g>
<g>
<title>java/io/FileInputStream.readBytes (1 samples, 2.56%)</title><rect x="161.3" y="355.0" width="30.2" height="15" fill="#52e352" rx="2" ry="2"/>
<text x="164.3" y="366.0">ja..</text>
</g>
<g>
<title>/usr/lib/jvm/java-8-openjdk-amd64/jre/lib/amd64/libjava.so (1 samples, 2.56%)</title><rect x="161.3" y="339.0" width="30.2" height="15" fill="#f06e6e" rx="2" ry="2"/>
<text x="164.3" y="350.0">/u..</text>
</g>
<g>
<title>__GI___read (1 samples, 2.56%)</title><rect x="161.3" y="323.0" width="30.2" height="15" fill="#e66161" rx="2" ry="2"/>
<text x="164.3" y="334.0">__..</text>
</g>
<g>
<title>java/io/FileInputStream.available (3 samples, 7.69%)</title><rect x="191.5" y="403.0" width="90.8" height="15" fill="#5dee5d" rx="2" ry="2"/>
<text x="194.5" y="414.0">java/io/Fi..</text>
</g>
<g>
<title>java/io/FileInputStream.available0 (2 samples, 5.13%)</title><rect x="191.5" y="387.0" width="60.6" height="15" fill="#62f362" rx="2" ry="2"/>
<text x="194.5" y="398.0">java/i..</text>
</g>
<g>
<title>Java_java_io_FileInputStream_available0 (2 samples, 5.13%)</title><rect x="191.5" y="371.0" width="60.6" height="15" fill="#f16f6f" rx="2" ry="2"/>
<text x="194.5" y="382.0">Java_j..</text>
</g>
<g>
<title>__fxstat (2 samples, 5.13%)</title><rect x="191.5" y="355.0" width="60.6" height="15" fill="#ed6a6a" rx="2" ry="2"/>
<text x="194.5" y="366.0">__fxstat</text>
</g>
<g>
<title>jbyte_disjoint_arraycopy (1 samples, 2.56%)</title><rect x="252.1" y="387.0" width="30.2" height="15" fill="#ec6868" rx="2" ry="2"/>
<text x="255.1" y="398.0">jb..</text>
</g>
<g>
<title>java/util/concurrent/ScheduledThreadPoolExecutor$ScheduledFutureTask.run (1 samples, 2.56%)</title><rect x="282.3" y="499.0" width="30.3" height="15" fill="#59ea59" rx="2" ry="2"/>
<text x="285.3" y="510.0">ja..</text>
</g>
<g>
<title>java/util/concurrent/ScheduledThreadPoolExecutor$ScheduledFutureTask.access$201 (1 samples, 2.56%)</title><rect x="282.3" y="483.0" width="30.3" height="15" fill="#54e554" rx="2" ry="2"/>
<text x="285.3" y="494.0">ja..</text>
</g>
<g>
<title>java/util/concurrent/FutureTask.run (1 samples, 2.56%)</title><rect x="282.3" y="467.0" width="30.3" height="15" fill="#6afb6a" rx="2" ry="2"/>
<text x="285.3" y="478.0">ja..</text>
</g>
<g>
<title>java/util/concurrent/Executors$RunnableAdapter.call (1 samples, 2.56%)</title><rect x="282.3" y="451.0" width="30.3" height="15" fill="#58e958" rx="2" ry="2"/>
<text x="285.3" y="462.0">ja..</text>
</g>
<g>
<title>org/apache/druid/java/util/common/concurrent/ScheduledExecutors$2.run (1 samples, 2.56%)</title><rect x="282.3" y="435.0" width="30.3" height="15" fill="#6cfd6c" rx="2" ry="2"/>
<text x="285.3" y="446.0">or..</text>
</g>
<g>
<title>org/apache/druid/java/util/common/concurrent/ScheduledExecutors$1.call (1 samples, 2.56%)</title><rect x="282.3" y="419.0" width="30.3" height="15" fill="#66f766" rx="2" ry="2"/>
<text x="285.3" y="430.0">or..</text>
</g>
<g>
<title>org/apache/druid/java/util/common/concurrent/ScheduledExecutors$1.call (1 samples, 2.56%)</title><rect x="282.3" y="403.0" width="30.3" height="15" fill="#51e251" rx="2" ry="2"/>
<text x="285.3" y="414.0">or..</text>
</g>
<g>
<title>org/apache/druid/security/basic/authentication/db/cache/CoordinatorPollingBasicAuthenticatorCacheManager$$Lambda$52/457732796.run (1 samples, 2.56%)</title><rect x="282.3" y="387.0" width="30.3" height="15" fill="#5bec5b" rx="2" ry="2"/>
<text x="285.3" y="398.0">or..</text>
</g>
<g>
<title>org/apache/druid/security/basic/authentication/db/cache/CoordinatorPollingBasicAuthenticatorCacheManager.lambda$start$0 (1 samples, 2.56%)</title><rect x="282.3" y="371.0" width="30.3" height="15" fill="#6dfe6d" rx="2" ry="2"/>
<text x="285.3" y="382.0">or..</text>
</g>
<g>
<title>java/lang/Thread.sleep (1 samples, 2.56%)</title><rect x="282.3" y="355.0" width="30.3" height="15" fill="#5aeb5a" rx="2" ry="2"/>
<text x="285.3" y="366.0">ja..</text>
</g>
<g>
<title>JVM_Sleep (1 samples, 2.56%)</title><rect x="282.3" y="339.0" width="30.3" height="15" fill="#e35d5d" rx="2" ry="2"/>
<text x="285.3" y="350.0">JV..</text>
</g>
<g>
<title>/usr/lib/jvm/java-8-openjdk-amd64/jre/lib/amd64/server/libjvm.so (1 samples, 2.56%)</title><rect x="282.3" y="323.0" width="30.3" height="15" fill="#ec6969" rx="2" ry="2"/>
<text x="285.3" y="334.0">/u..</text>
</g>
<g>
<title>__lll_unlock_wake (1 samples, 2.56%)</title><rect x="282.3" y="307.0" width="30.3" height="15" fill="#f67676" rx="2" ry="2"/>
<text x="285.3" y="318.0">__..</text>
</g>
<g>
<title>org/jboss/netty/util/internal/DeadLockProofWorker$1.run (18 samples, 46.15%)</title><rect x="312.6" y="499.0" width="544.6" height="15" fill="#6cfd6c" rx="2" ry="2"/>
<text x="315.6" y="510.0">org/jboss/netty/util/internal/DeadLockProofWorker$1.run</text>
</g>
<g>
<title>org/jboss/netty/util/ThreadRenamingRunnable.run (18 samples, 46.15%)</title><rect x="312.6" y="483.0" width="544.6" height="15" fill="#51e251" rx="2" ry="2"/>
<text x="315.6" y="494.0">org/jboss/netty/util/ThreadRenamingRunnable.run</text>
</g>
<g>
<title>org/jboss/netty/channel/socket/nio/NioWorker.run (18 samples, 46.15%)</title><rect x="312.6" y="467.0" width="544.6" height="15" fill="#56e756" rx="2" ry="2"/>
<text x="315.6" y="478.0">org/jboss/netty/channel/socket/nio/NioWorker.run</text>
</g>
<g>
<title>org/jboss/netty/channel/socket/nio/AbstractNioWorker.run (18 samples, 46.15%)</title><rect x="312.6" y="451.0" width="544.6" height="15" fill="#6cfd6c" rx="2" ry="2"/>
<text x="315.6" y="462.0">org/jboss/netty/channel/socket/nio/AbstractNioWorker.run</text>
</g>
<g>
<title>org/jboss/netty/channel/socket/nio/AbstractNioSelector.run (18 samples, 46.15%)</title><rect x="312.6" y="435.0" width="544.6" height="15" fill="#58e958" rx="2" ry="2"/>
<text x="315.6" y="446.0">org/jboss/netty/channel/socket/nio/AbstractNioSelector.run</text>
</g>
<g>
<title>org/jboss/netty/channel/socket/nio/AbstractNioSelector.select (13 samples, 33.33%)</title><rect x="312.6" y="419.0" width="393.3" height="15" fill="#62f362" rx="2" ry="2"/>
<text x="315.6" y="430.0">org/jboss/netty/channel/socket/nio/AbstractNioSelector..</text>
</g>
<g>
<title>org/jboss/netty/channel/socket/nio/SelectorUtil.select (13 samples, 33.33%)</title><rect x="312.6" y="403.0" width="393.3" height="15" fill="#5ff05f" rx="2" ry="2"/>
<text x="315.6" y="414.0">org/jboss/netty/channel/socket/nio/SelectorUtil.select</text>
</g>
<g>
<title>sun/nio/ch/SelectorImpl.select (13 samples, 33.33%)</title><rect x="312.6" y="387.0" width="393.3" height="15" fill="#6bfc6b" rx="2" ry="2"/>
<text x="315.6" y="398.0">sun/nio/ch/SelectorImpl.select</text>
</g>
<g>
<title>sun/nio/ch/SelectorImpl.lockAndDoSelect (13 samples, 33.33%)</title><rect x="312.6" y="371.0" width="393.3" height="15" fill="#65f665" rx="2" ry="2"/>
<text x="315.6" y="382.0">sun/nio/ch/SelectorImpl.lockAndDoSelect</text>
</g>
<g>
<title>sun/nio/ch/EPollSelectorImpl.doSelect (13 samples, 33.33%)</title><rect x="312.6" y="355.0" width="393.3" height="15" fill="#52e352" rx="2" ry="2"/>
<text x="315.6" y="366.0">sun/nio/ch/EPollSelectorImpl.doSelect</text>
</g>
<g>
<title>java/nio/channels/spi/AbstractSelector.begin (1 samples, 2.56%)</title><rect x="312.6" y="339.0" width="30.2" height="15" fill="#6dfe6d" rx="2" ry="2"/>
<text x="315.6" y="350.0">ja..</text>
</g>
<g>
<title>java/nio/channels/spi/AbstractInterruptibleChannel.blockedOn (1 samples, 2.56%)</title><rect x="312.6" y="323.0" width="30.2" height="15" fill="#57e857" rx="2" ry="2"/>
<text x="315.6" y="334.0">ja..</text>
</g>
<g>
<title>sun/nio/ch/EPollArrayWrapper.poll (10 samples, 25.64%)</title><rect x="342.8" y="339.0" width="302.6" height="15" fill="#57e857" rx="2" ry="2"/>
<text x="345.8" y="350.0">sun/nio/ch/EPollArrayWrapper.poll</text>
</g>
<g>
<title>sun/nio/ch/EPollArrayWrapper.epollWait (10 samples, 25.64%)</title><rect x="342.8" y="323.0" width="302.6" height="15" fill="#5ced5c" rx="2" ry="2"/>
<text x="345.8" y="334.0">sun/nio/ch/EPollArrayWrapper.epollWait</text>
</g>
<g>
<title>epoll_wait (8 samples, 20.51%)</title><rect x="403.3" y="307.0" width="242.1" height="15" fill="#fa7c7c" rx="2" ry="2"/>
<text x="406.3" y="318.0">epoll_wait</text>
</g>
<g>
<title>sun/nio/ch/EPollSelectorImpl.updateSelectedKeys (2 samples, 5.13%)</title><rect x="645.4" y="339.0" width="60.5" height="15" fill="#68f968" rx="2" ry="2"/>
<text x="648.4" y="350.0">sun/ni..</text>
</g>
<g>
<title>java/util/HashMap.get (2 samples, 5.13%)</title><rect x="645.4" y="323.0" width="60.5" height="15" fill="#69fa69" rx="2" ry="2"/>
<text x="648.4" y="334.0">java/u..</text>
</g>
<g>
<title>java/util/HashMap.getNode (2 samples, 5.13%)</title><rect x="645.4" y="307.0" width="60.5" height="15" fill="#56e756" rx="2" ry="2"/>
<text x="648.4" y="318.0">java/u..</text>
</g>
<g>
<title>org/jboss/netty/channel/socket/nio/AbstractNioWorker.process (5 samples, 12.82%)</title><rect x="705.9" y="419.0" width="151.3" height="15" fill="#53e453" rx="2" ry="2"/>
<text x="708.9" y="430.0">org/jboss/netty/cha..</text>
</g>
<g>
<title>start_thread (11 samples, 28.21%)</title><rect x="857.2" y="547.0" width="332.8" height="15" fill="#fe8181" rx="2" ry="2"/>
<text x="860.2" y="558.0">start_thread</text>
</g>
<g>
<title>/usr/lib/jvm/java-8-openjdk-amd64/jre/lib/amd64/server/libjvm.so (11 samples, 28.21%)</title><rect x="857.2" y="531.0" width="332.8" height="15" fill="#e45e5e" rx="2" ry="2"/>
<text x="860.2" y="542.0">/usr/lib/jvm/java-8-openjdk-amd64/jre/lib/amd..</text>
</g>
<g>
<title>/usr/lib/jvm/java-8-openjdk-amd64/jre/lib/amd64/server/libjvm.so (11 samples, 28.21%)</title><rect x="857.2" y="515.0" width="332.8" height="15" fill="#ec6969" rx="2" ry="2"/>
<text x="860.2" y="526.0">/usr/lib/jvm/java-8-openjdk-amd64/jre/lib/amd..</text>
</g>
<g>
<title>/usr/lib/jvm/java-8-openjdk-amd64/jre/lib/amd64/server/libjvm.so (10 samples, 25.64%)</title><rect x="887.4" y="499.0" width="302.6" height="15" fill="#fd7f7f" rx="2" ry="2"/>
<text x="890.4" y="510.0">/usr/lib/jvm/java-8-openjdk-amd64/jre/lib..</text>
</g>
<g>
<title>/usr/lib/jvm/java-8-openjdk-amd64/jre/lib/amd64/server/libjvm.so (9 samples, 23.08%)</title><rect x="887.4" y="483.0" width="272.3" height="15" fill="#fa7c7c" rx="2" ry="2"/>
<text x="890.4" y="494.0">/usr/lib/jvm/java-8-openjdk-amd64/jr..</text>
</g>
<g>
<title>/usr/lib/jvm/java-8-openjdk-amd64/jre/lib/amd64/server/libjvm.so (7 samples, 17.95%)</title><rect x="947.9" y="467.0" width="211.8" height="15" fill="#ee6c6c" rx="2" ry="2"/>
<text x="950.9" y="478.0">/usr/lib/jvm/java-8-openjdk-..</text>
</g>
<g>
<title>/usr/lib/jvm/java-8-openjdk-amd64/jre/lib/amd64/server/libjvm.so (1 samples, 2.56%)</title><rect x="1008.5" y="451.0" width="30.2" height="15" fill="#ea6666" rx="2" ry="2"/>
<text x="1011.5" y="462.0">/u..</text>
</g>
<g>
<title>__pthread_mutex_cond_lock (1 samples, 2.56%)</title><rect x="1038.7" y="451.0" width="30.3" height="15" fill="#fa7b7b" rx="2" ry="2"/>
<text x="1041.7" y="462.0">__..</text>
</g>
<g>
<title>pthread_cond_timedwait@@GLIBC_2.3.2 (3 samples, 7.69%)</title><rect x="1069.0" y="451.0" width="90.7" height="15" fill="#f87979" rx="2" ry="2"/>
<text x="1072.0" y="462.0">pthread_co..</text>
</g>
<g>
<title>__pthread_getspecific (1 samples, 2.56%)</title><rect x="1159.7" y="483.0" width="30.3" height="15" fill="#ed6a6a" rx="2" ry="2"/>
<text x="1162.7" y="494.0">__..</text>
</g>
</g>
</svg>
